# xmcd
#
# Track frame offsets:
#	150
#	26037
#	44346
#	59446
#	83184
#	95409
#	109893
#	124902
#	147282
#	164567
#	178316
#	196308
#
# Disc length: 2834 seconds
# Revision: 0
# Processed by: cddbd v1.5.2PL0 Copyright (c) Steve Scherf et al.
# Submitted via: dBpowerAMP V12.0
#
DISCID=b00b100c
DTITLE=Various Artist - The Blues Magazine: Raise Your Voice
DYEAR=2016
DGENRE=Blues
TTITLE0=Joe Bonamassa - Mountain Climbing
TTITLE1=The Rides - Virtual World
TTITLE2=Ina Forsman - Hanging Loose
TTITLE3=Layla Zoe - Why Do We Always Hurt The Ones We Love
TTITLE4=Simo - Please
TTITLE5=Tasha Taylor - Little Miss Suzie
TTITLE6=Emma King - Devil City
TTITLE7=Kyla Brox - If You See Him
TTITLE8=Ben Poole - Longing For A Woman
TTITLE9=Ben Carr - You Ain't Good Looking Enough To Be That Bossy
TTITLE10=Dirty Thrills - The Man Who Lost His Way
TTITLE11=Long John Laundry - Honey Bee
EXTD=
EXTT0=
EXTT1=
EXTT2=
EXTT3=
EXTT4=
EXTT5=
EXTT6=
EXTT7=
EXTT8=
EXTT9=
EXTT10=
EXTT11=
PLAYORDER=
